<svg width="48" height="38" viewBox="0 0 48 38" fill="none" xmlns="http://www.w3.org/2000/svg">
<g clip-path="url(#clip0_993_486)">
<path d="M29.1416 8.62402H41.1395V12.0693H29.1416V8.62402Z" fill="white"/>
<path d="M29.1416 17.2373H41.1395V20.6826H29.1416V17.2373Z" fill="white"/>
<path d="M29.1416 25.8506H41.1395V29.2959H29.1416V25.8506Z" fill="white"/>
<path d="M44.5708 1.02135H3.4353C2.52642 1.02226 1.65161 0.375325 1.00893 1.02125C0.366264 1.66717 0.00481376 2.54297 0.00390625 3.45645V34.4643C0.00481376 35.3778 0.366264 36.2536 1.00893 36.8995C1.65161 37.5454 2.52299 37.9087 3.43187 37.9096H44.5674C45.4761 37.9083 46.3472 37.5448 46.9898 36.899C47.6324 36.2532 47.994 35.3776 47.9953 34.4643V3.45645C47.9944 2.54297 47.633 1.66717 46.9903 1.02125C46.3477 0.375325 45.4797 1.02226 44.5708 1.02135ZM3.43187 3.45645H22.2856V34.4643H3.43187V3.45645ZM25.7136 34.4643V3.45645H44.5674L44.5708 34.4643H25.7136Z" fill="white"/>
</g>
<defs>
<clipPath id="clip0_993_486">
<rect width="48" height="37.92" fill="white"/>
</clipPath>
</defs>
</svg>
